<svg xmlns="http://www.w3.org/2000/svg" width="260" height="260" viewBox="0 0 260 260">
  <g fill="none" stroke-width="1.8" stroke-linecap="round" stroke-linejoin="round">
    <g stroke="#20c7bd" opacity=".34"><path d="M25 28 38 22l13 6v10c0 9-6 16-13 20-7-4-13-11-13-20z"/><path d="m32 39 5 5 8-11"/></g>
    <g stroke="#55a8ff" opacity=".32"><path d="M104 25h25a7 7 0 0 1 7 7v16a7 7 0 0 1-7 7h-13l-9 8v-8h-3a7 7 0 0 1-7-7V32a7 7 0 0 1 7-7z"/><path d="M108 38h17M108 45h11"/></g>
    <g stroke="#a879ff" opacity=".35"><path d="m190 24 30 13-14 6-6 15-10-34z"/><path d="m201 44 8-8"/></g>
    <g stroke="#ff8d74" opacity=".32"><rect x="27" y="108" width="29" height="34" rx="5"/><path d="M35 117h13M35 124h13M35 131h8"/></g>
    <g stroke="#f5ba4f" opacity=".38"><circle cx="125" cy="124" r="19"/><path d="M116 130c2-7 16-7 18 0M125 119a5 5 0 1 0 0-10 5 5 0 0 0 0 10z"/></g>
    <g stroke="#20c7bd" opacity=".32"><path d="M194 108h24a7 7 0 0 1 7 7v17a7 7 0 0 1-7 7h-7l-9 8v-8h-8a7 7 0 0 1-7-7v-17a7 7 0 0 1 7-7z"/><path d="M197 121h17M197 128h11"/></g>
    <g stroke="#55a8ff" opacity=".34"><path d="M27 207a13 13 0 1 1 26 0v11H27z"/><path d="M34 207v-8a6 6 0 0 1 12 0v8M40 211v4"/></g>
    <g stroke="#ff8d74" opacity=".35"><path d="M108 199c8-10 27-5 27 9 0 15-17 22-17 22s-17-7-17-22c0-5 3-9 7-9z"/><path d="m111 212 5 5 9-12"/></g>
    <g stroke="#a879ff" opacity=".36"><circle cx="210" cy="211" r="18"/><path d="M201 211h18M210 202v18"/></g>
    <g stroke="#f5ba4f" opacity=".34"><path d="m72 72 3 7 8 1-6 5 2 8-7-4-7 4 2-8-6-5 8-1z"/></g>
    <g stroke="#20c7bd" opacity=".34"><path d="M159 77v17a7 7 0 1 1-5-7V71l16-4v17a7 7 0 1 1-5-7V74z"/></g>
    <g stroke="#55a8ff" opacity=".3"><path d="M76 171h18l5 5-5 5H76l-5-5z"/><circle cx="81" cy="176" r="1" fill="#55a8ff"/></g>
  </g>
</svg>
